<svg id="Layer_1" data-name="Layer 1" xmlns="http://www.w3.org/2000/svg" viewBox="0 0 337.5 55.12"><defs><style>.cls-1,.cls-4{fill:none;stroke-miterlimit:10;stroke-width:0.9px;}.cls-1{stroke:#3d4752;}.cls-2{fill:#3d4752;}.cls-3{fill:#cdbbdc;}.cls-4{stroke:#000;opacity:0;}.cls-5{fill:#d6d6d6;}</style></defs><title>erd-chens</title><line class="cls-1" x1="99.45" y1="27.56" x2="132.75" y2="27.56"/><polygon class="cls-2" points="132.75 27.56 133.38 28.01 132.75 28.01 132.75 27.11 133.38 27.11 132.75 27.56"/><polygon class="cls-3" points="168.75 0.56 204.75 27.56 168.75 54.56 132.75 27.56 168.75 0.56"/><polygon class="cls-4" points="168.75 0.56 204.75 27.56 168.75 54.56 132.75 27.56 168.75 0.56"/><line class="cls-1" x1="204.75" y1="27.56" x2="238.05" y2="27.56"/><polygon class="cls-2" points="204.75 28.01 204.16 28.01 204.75 27.56 204.16 27.11 204.75 27.11 204.75 28.01"/><rect class="cls-5" x="0.45" y="0.56" width="99" height="54"/><rect class="cls-4" x="0.45" y="0.56" width="99" height="54"/><path class="cls-2" d="M152.76,26c0-1-1.21-.91-2.27-.91V26.9c1.06,0,2.27.11,2.27-.92m.81,0a1.53,1.53,0,0,1-1.39,1.51l1.6,2.63h-1l-1.46-2.55h-.86v2.55h-.8V24.39C151.51,24.38,153.57,24.14,153.57,26Z"/><path class="cls-2" d="M156.26,26.18c1.3,0,1.9.87,1.84,2.25h-3a1.2,1.2,0,0,0,1.25,1.17,1.28,1.28,0,0,0,1.12-.58l.53.43a1.92,1.92,0,0,1-1.65.79,1.86,1.86,0,0,1-2-2,1.86,1.86,0,0,1,2-2m1.08,1.68a1.07,1.07,0,0,0-1.54-1,1.12,1.12,0,0,0-.75,1Z"/><path class="cls-2" d="M161.18,29.59a1.24,1.24,0,0,0,1.28-1.39,1.23,1.23,0,0,0-1.28-1.39,1.39,1.39,0,0,0,0,2.78m.13.64a1.59,1.59,0,0,1-1.35-.68h0v2.52h-.76V26.29h.75v.6h0a1.54,1.54,0,0,1,1.39-.7,1.85,1.85,0,0,1,1.92,2A1.84,1.84,0,0,1,161.31,30.23Z"/><path class="cls-2" d="M166.12,29.59a1.24,1.24,0,0,0,1.28-1.39,1.28,1.28,0,1,0-2.56,0,1.24,1.24,0,0,0,1.28,1.39m0-3.41a2,2,0,1,1-2.07,2A1.9,1.9,0,0,1,166.12,26.18Z"/><path class="cls-2" d="M169.24,30.13c0-1.28,0-2.61,0-3.84h.72c0,.16,0,.48,0,.65h0a1.3,1.3,0,0,1,1.47-.72l0,.7A1.1,1.1,0,0,0,170,28.11v2h-.76"/><path class="cls-2" d="M173.3,30.19c-.75,0-1.13-.43-1.12-1.2V26.91h-.74v-.62h.74v-1.1h.75v1.1h1v.62h-1v2c0,.44.13.64.54.65a1.09,1.09,0,0,0,.45-.1l0,.62a1.94,1.94,0,0,1-.65.11"/><path class="cls-2" d="M182.75,30.19c-.75,0-1.13-.43-1.12-1.2V26.91h-.74v-.62h.74v-1.1h.75v1.1h1v.62h-1v2c0,.44.13.64.54.65a1.09,1.09,0,0,0,.45-.1l0,.62a1.94,1.94,0,0,1-.65.11"/><path class="cls-2" d="M174.61,27.81c-.5-1.26.95-2,2.14-1.47a1.3,1.3,0,0,1,.6.47l-.53.45a1,1,0,0,0-.89-.48c-.38,0-.71.12-.71.5,0,.59.92.51,1.39.73a1.08,1.08,0,0,1,.78,1c.06,1.56-2.45,1.51-3.08.55l.54-.46a1.24,1.24,0,0,0,1,.53c.42,0,.76-.14.76-.56,0-.73-1.27-.51-1.76-.95a.84.84,0,0,1-.26-.3"/><path class="cls-2" d="M186,29.59a1.24,1.24,0,0,0,1.28-1.39,1.28,1.28,0,1,0-2.56,0A1.24,1.24,0,0,0,186,29.59m0-3.41a2,2,0,1,1-2.07,2A1.9,1.9,0,0,1,186,26.18Z"/><path class="cls-2" d="M116.63,16.88c1,1.52,2,3.08,3,4.58V16.88h.8v5.73h-1c-1-1.56-2-3.14-3-4.68v4.68h-.8V16.88h1"/><rect class="cls-5" x="238.05" y="0.56" width="99" height="54"/><rect class="cls-4" x="238.05" y="0.56" width="99" height="54"/><polyline class="cls-2" points="220.69 22.48 219.9 22.48 219.9 20.09 219.9 17.7 218.82 18.61 218.36 18.06 219.99 16.74 220.69 16.74 220.69 19.61 220.69 22.48"/><polyline class="cls-2" points="32.64 29.41 35.64 29.41 35.64 29.77 35.64 30.13 31.84 30.13 31.84 27.26 31.84 24.39 35.51 24.39 35.51 24.75 35.51 25.1 32.64 25.1 32.64 25.96 32.64 26.82 35.34 26.82 35.34 27.16 35.34 27.5 32.64 27.5 32.64 28.46 32.64 29.41"/><path class="cls-2" d="M37.41,26.92a1.34,1.34,0,0,1,1.22-.74,1.2,1.2,0,0,1,1.19.77,1.41,1.41,0,0,1,1.3-.77c1,0,1.43.61,1.43,1.56v2.38H41.8V28c0-.66-.19-1.17-.85-1.17-1.39,0-.87,2-1,3.3h-.76V27.84c0-.61-.21-1-.81-1s-1,.58-1,1.26v2h-.76c0-1.28,0-2.61,0-3.84h.72c0,.16,0,.45,0,.63h0"/><path class="cls-2" d="M45.86,29.59a1.24,1.24,0,0,0,1.28-1.39,1.23,1.23,0,0,0-1.28-1.39,1.39,1.39,0,0,0,0,2.78m.13.64a1.59,1.59,0,0,1-1.35-.68h0v2.52h-.76V26.29h.75v.6h0a1.54,1.54,0,0,1,1.39-.7,1.85,1.85,0,0,1,1.92,2A1.84,1.84,0,0,1,46,30.23Z"/><polyline class="cls-2" points="49.76 30.13 49 30.13 49 27.07 49 24 49.76 24 49.76 27.07 49.76 30.13"/><path class="cls-2" d="M52.9,29.59a1.24,1.24,0,0,0,1.28-1.39,1.28,1.28,0,1,0-2.56,0,1.24,1.24,0,0,0,1.28,1.39m0-3.41a2,2,0,1,1-2.07,2A1.9,1.9,0,0,1,52.9,26.18Z"/><path class="cls-2" d="M56.3,26.29c.41,1,.78,2,1.21,3l1.06-3h.81L57.51,31a1.4,1.4,0,0,1-1.83,1l.07-.67a.79.79,0,0,0,.83-.1,4.73,4.73,0,0,0,.51-1.12l-1.64-3.84h.85"/><path class="cls-2" d="M61.85,26.18c1.3,0,1.9.87,1.84,2.25h-3a1.2,1.2,0,0,0,1.25,1.17A1.28,1.28,0,0,0,63,29l.53.43a1.92,1.92,0,0,1-1.65.79,1.86,1.86,0,0,1-2-2,1.86,1.86,0,0,1,2-2m1.08,1.68a1.07,1.07,0,0,0-1.54-1,1.12,1.12,0,0,0-.75,1Z"/><path class="cls-2" d="M66.49,26.18c1.3,0,1.9.87,1.84,2.25h-3a1.2,1.2,0,0,0,1.25,1.17A1.28,1.28,0,0,0,67.65,29l.53.43a1.92,1.92,0,0,1-1.65.79,1.86,1.86,0,0,1-2-2,1.86,1.86,0,0,1,2-2m1.08,1.68a1.07,1.07,0,0,0-1.54-1,1.12,1.12,0,0,0-.75,1Z"/><path class="cls-2" d="M269.91,27.26c0-1.46-.95-2.13-2.4-2.17h-1v4.33h1c1.44,0,2.4-.72,2.4-2.16m-2.24-2.87c1.84.09,3.09,1,3.09,2.87a2.67,2.67,0,0,1-2,2.69,12,12,0,0,1-3.07.18V24.39Z"/><path class="cls-2" d="M273.56,26.18c1.3,0,1.9.87,1.84,2.25h-3a1.2,1.2,0,0,0,1.25,1.17,1.28,1.28,0,0,0,1.12-.58l.53.43a1.92,1.92,0,0,1-1.65.79,1.86,1.86,0,0,1-2-2,1.86,1.86,0,0,1,2-2m1.08,1.68a1.07,1.07,0,0,0-1.54-1,1.12,1.12,0,0,0-.75,1Z"/><path class="cls-2" d="M278.48,29.59a1.24,1.24,0,0,0,1.28-1.39,1.23,1.23,0,0,0-1.28-1.39,1.39,1.39,0,0,0,0,2.78m.13.64a1.59,1.59,0,0,1-1.35-.68h0v2.52h-.76V26.29h.75v.6h0a1.54,1.54,0,0,1,1.39-.7,1.85,1.85,0,0,1,1.92,2A1.84,1.84,0,0,1,278.6,30.23Z"/><path class="cls-2" d="M282.88,29.63A1.09,1.09,0,0,0,284,28.3c-.83,0-1.9,0-1.9.73,0,.44.35.59.79.6M281.32,29c0-1.24,1.4-1.26,2.67-1.3,0-.65-.35-.95-.95-.95a1.6,1.6,0,0,0-1.09.45l-.4-.49a2.26,2.26,0,0,1,1.57-.58,1.42,1.42,0,0,1,1.6,1.51,23.92,23.92,0,0,0,.06,2.44h-.69a2.56,2.56,0,0,1-.06-.55h0a1.47,1.47,0,0,1-1.29.65C281.92,30.22,281.32,29.86,281.32,29Z"/><path class="cls-2" d="M286,30.13c0-1.28,0-2.61,0-3.84h.72c0,.16,0,.48,0,.65h0a1.3,1.3,0,0,1,1.47-.72l0,.7a1.1,1.1,0,0,0-1.43,1.19v2H286"/><path class="cls-2" d="M290.05,30.19c-.75,0-1.13-.43-1.12-1.2V26.91h-.74v-.62h.74v-1.1h.75v1.1h1v.62h-1v2c0,.44.13.64.54.65a1.09,1.09,0,0,0,.45-.1l0,.62a1.94,1.94,0,0,1-.65.11"/><path class="cls-2" d="M292.24,26.92a1.34,1.34,0,0,1,1.22-.74,1.2,1.2,0,0,1,1.19.77,1.41,1.41,0,0,1,1.3-.77c1,0,1.43.61,1.43,1.56v2.38h-.76V28c0-.66-.19-1.17-.85-1.17-1.39,0-.87,2-1,3.3H294V27.84c0-.61-.21-1-.81-1s-1,.58-1,1.26v2h-.76c0-1.28,0-2.61,0-3.84h.72c0,.16,0,.45,0,.63h0"/><path class="cls-2" d="M300.41,26.18c1.3,0,1.9.87,1.84,2.25h-3a1.2,1.2,0,0,0,1.25,1.17,1.28,1.28,0,0,0,1.12-.58l.53.43a1.92,1.92,0,0,1-1.65.79,1.86,1.86,0,0,1-2-2,1.86,1.86,0,0,1,2-2m1.08,1.68a1.07,1.07,0,0,0-1.54-1,1.12,1.12,0,0,0-.75,1Z"/><path class="cls-2" d="M303.32,30.13c0-1.28,0-2.61,0-3.84H304c0,.16,0,.45,0,.63h0a1.34,1.34,0,0,1,1.25-.74c1,0,1.43.61,1.43,1.56v2.38H306V28c0-.68-.19-1.17-.87-1.17s-1,.57-1,1.26v2h-.76"/><path class="cls-2" d="M309.26,30.19c-.75,0-1.13-.43-1.12-1.2V26.91h-.74v-.62h.74v-1.1h.75v1.1h1v.62h-1v2c0,.44.13.64.54.65a1.09,1.09,0,0,0,.45-.1l0,.62a1.94,1.94,0,0,1-.65.11"/></svg>